<svg width="53" height="53" viewBox="0 0 53 53" fill="none" xmlns="http://www.w3.org/2000/svg">
<path d="M26.7344 14.724C22.3057 14.724 17.8729 14.7653 13.4463 14.7034C11.6389 14.6766 9.92228 15.9935 9.94289 18.2418C9.97037 23.7525 9.97037 29.2638 9.94289 34.7757C9.93052 37.0303 11.6534 38.3265 13.4463 38.3183C22.2707 38.2729 31.0951 38.2729 39.9195 38.3183C41.7598 38.3286 43.4434 37.0035 43.4228 34.7819C43.3981 29.2699 43.3981 23.758 43.4228 18.246C43.4352 16.01 41.7392 14.6787 39.9195 14.7055C35.5258 14.7653 31.1301 14.724 26.7344 14.724ZM52.6821 26.5057C52.6821 40.8715 41.0363 52.5173 26.6705 52.5173C12.3047 52.5173 0.658936 40.8715 0.658936 26.5057C0.658936 12.1399 12.3047 0.494141 26.6705 0.494141C41.0363 0.494141 52.6821 12.1399 52.6821 26.5057Z" fill="#F8F8F8"/>
<path d="M12.6117 18.7139L25.6443 29.0591C26.4129 29.6774 26.9632 29.6774 27.7319 29.0591C31.8885 25.7618 40.7376 18.7365 40.7376 18.7365C40.7376 18.7365 40.7686 29.5208 40.7686 34.6295C40.7686 35.4909 40.6243 35.6352 39.7794 35.6352H13.6071C12.758 35.6352 12.6138 35.4909 12.6138 34.6316L12.6117 18.7139Z" fill="#F8F8F8"/>
<path d="M15.2906 17.4092H38.0564L27.0373 26.215C26.7508 26.4438 26.588 26.4211 26.3139 26.215L15.2906 17.4092Z" fill="#F8F8F8"/>
</svg>
