<svg xmlns="http://www.w3.org/2000/svg" width="46.58" height="46.532" viewBox="0 0 46.58 46.532">
  <g id="icone-tracione" transform="translate(0.02 0.001)">
    <g id="Camada_1" data-name="Camada 1" transform="translate(-0.02 -0.001)">
      <path id="Caminho_15" data-name="Caminho 15" d="M1.011,49.45A1.751,1.751,0,0,1,0,47.617V37.9a1.637,1.637,0,0,1,.483-1.154c1.759-1.743,7.856-7.774,9.91-9.82a2.111,2.111,0,0,1,1.522-.622h8.854a1.1,1.1,0,0,0,.818-.327c3.069-3.085,6.146-6.146,9.215-9.239a2.275,2.275,0,0,1,1.637-.663h9.534a1.686,1.686,0,0,1,1.686,1.686V46.725h1.088a1.637,1.637,0,0,1,1.817,1.039v.687a2.144,2.144,0,0,1-1,1ZM33.426,18.82V46.684h7.488V18.861Zm-2.791,1.964-.2.18c-2.349,2.349-4.7,4.681-7.03,7.038a1.023,1.023,0,0,0-.213.646V46.7h7.455ZM12.992,29.016V46.7h7.463V29.016ZM2.738,46.7h7.439V31.029c-.082.065-.123.082-.155.115Q6.47,34.7,2.934,38.247a.818.818,0,0,0-.188.516q0,1.522,0,3.044Z" transform="translate(0.02 -2.918)" fill="#f8f8f8"/>
      <path id="Caminho_16" data-name="Caminho 16" d="M14.876,3.494a1.432,1.432,0,0,1-.818,1.416,1.318,1.318,0,0,1-1.481-.237,1.579,1.579,0,0,0-1.588-.417A1.5,1.5,0,0,0,9.9,5.524a1.129,1.129,0,0,0,.687,1.219c.466.27.974.466,1.465.7a15.713,15.713,0,0,1,1.743.867A3.715,3.715,0,0,1,15.7,11.833,4.092,4.092,0,0,1,13.3,15.417a.818.818,0,0,0-.54.753,1.334,1.334,0,0,1-2.635,0c-.049-.4-.229-.532-.581-.646A9.951,9.951,0,0,1,7.9,14.812a1.334,1.334,0,0,1-.54-1.874,1.416,1.416,0,0,1,1.9-.491,10.278,10.278,0,0,0,2.013.638,1.416,1.416,0,0,0,1.481-.728,1.129,1.129,0,0,0-.311-1.637A9.37,9.37,0,0,0,11.12,10,20.156,20.156,0,0,1,9.042,9a4.018,4.018,0,0,1,.524-7.087.753.753,0,0,0,.54-.712A1.309,1.309,0,0,1,11.464,0a1.334,1.334,0,0,1,1.293,1.3.548.548,0,0,0,.368.532,6.35,6.35,0,0,1,1.26.818,2.93,2.93,0,0,1,.491.843Z" transform="translate(-1.284 0.001)" fill="#f8f8f8"/>
    </g>
  </g>
</svg>
