<svg width="53" height="53" viewBox="0 0 53 53" fill="none" xmlns="http://www.w3.org/2000/svg">
<path d="M30.9904 26.5056C30.9904 29.2592 28.7652 31.4844 26.0116 31.4844C23.258 31.4844 21.0328 29.2592 21.0328 26.5056C21.0328 23.7521 23.258 21.5269 26.0116 21.5269C28.7652 21.5269 30.9904 23.7521 30.9904 26.5056Z" fill="#F8F8F8"/>
<path d="M37.6558 17.6965C37.412 17.0462 37.036 16.4568 36.5381 15.9793C36.0606 15.4814 35.4712 15.1055 34.821 14.8616C34.2926 14.6584 33.5001 14.4145 32.0471 14.3434C30.4722 14.2723 29.9946 14.252 26.0116 14.252C22.0184 14.252 21.551 14.2621 19.9761 14.3434C18.5231 14.4145 17.7305 14.6584 17.2022 14.8616C16.5519 15.1055 15.9626 15.4814 15.485 15.9793C14.9872 16.4568 14.6112 17.0462 14.3673 17.6965C14.1641 18.2248 13.9203 19.0173 13.8491 20.4703C13.778 22.0453 13.7577 22.5126 13.7577 26.5058C13.7577 30.499 13.778 30.9664 13.8491 32.5413C13.9203 33.9943 14.154 34.7869 14.3673 35.3152C14.6112 35.9655 14.9872 36.5548 15.485 37.0324C15.9626 37.5303 16.5519 37.9062 17.2022 38.1501C17.7305 38.3533 18.5231 38.5971 19.9761 38.6683C21.551 38.7394 22.0184 38.7597 26.0116 38.7597C30.0047 38.7597 30.4722 38.7495 32.0471 38.6683C33.5001 38.5971 34.2926 38.3634 34.821 38.1501C36.1215 37.6522 37.1579 36.6158 37.6558 35.3152C37.859 34.7868 38.1029 33.9943 38.174 32.5413C38.2451 30.9664 38.2655 30.4889 38.2655 26.5058C38.2655 22.5126 38.2553 22.0453 38.174 20.4703C38.1029 19.0173 37.859 18.2248 37.6558 17.6965ZM26.0116 34.1772C21.7745 34.1772 18.3402 30.7429 18.3402 26.5058C18.3402 22.2688 21.7745 18.8345 26.0116 18.8345C30.2486 18.8345 33.6829 22.2688 33.6829 26.5058C33.6829 30.7429 30.2486 34.1772 26.0116 34.1772ZM33.9878 20.3281C33.0022 20.3281 32.1995 19.5254 32.1995 18.5398C32.1995 17.5542 33.0022 16.7515 33.9878 16.7515C34.9734 16.7515 35.7761 17.5542 35.7761 18.5398C35.7761 19.5254 34.9734 20.3281 33.9878 20.3281Z" fill="#F8F8F8"/>
<path d="M26.0116 0.494141C11.6442 0.494141 0 12.1384 0 26.5057C0 40.873 11.6442 52.5173 26.0116 52.5173C40.3789 52.5173 52.0231 40.873 52.0231 26.5057C52.0231 12.1384 40.3789 0.494141 26.0116 0.494141ZM40.8564 32.6631C40.7853 34.2482 40.5313 35.3354 40.1655 36.2905C39.3933 38.2922 37.8082 39.8874 35.7964 40.6597C34.8514 41.0254 33.7642 41.2795 32.169 41.3506C30.5737 41.4217 30.0657 41.442 26.0116 41.442C21.9574 41.442 21.4494 41.4217 19.8541 41.3506C18.2691 41.2795 17.1819 41.0254 16.2267 40.6597C15.231 40.2837 14.3267 39.6944 13.5849 38.9323C12.8229 38.1906 12.2336 37.2863 11.8576 36.2905C11.4918 35.3456 11.2378 34.2584 11.1667 32.6631C11.0956 31.0679 11.0752 30.5598 11.0752 26.5057C11.0752 22.4516 11.0956 21.9435 11.1667 20.3483C11.2378 18.7632 11.4918 17.676 11.8576 16.7209C12.2336 15.7251 12.8229 14.8208 13.5849 14.0791C14.3267 13.317 15.231 12.7277 16.2267 12.3518C17.1819 11.986 18.2589 11.7319 19.8541 11.6608C21.4494 11.5897 21.9574 11.5694 26.0116 11.5694C30.0657 11.5694 30.5737 11.5897 32.169 11.6608C33.7541 11.7319 34.8413 11.986 35.7964 12.3518C36.7921 12.7277 37.6964 13.317 38.4382 14.0791C39.2002 14.8208 39.7896 15.7251 40.1655 16.7209C40.5313 17.676 40.7853 18.753 40.8564 20.3483C40.9276 21.9435 40.9479 22.4516 40.9479 26.5057C40.9479 30.5599 40.9276 31.0679 40.8564 32.6631Z" fill="#F8F8F8"/>
</svg>
