<svg width="52" height="53" viewBox="0 0 52 53" fill="none" xmlns="http://www.w3.org/2000/svg">
<circle cx="26" cy="26.4941" r="26" fill="#F8F8F8"/>
<path fill-rule="evenodd" clip-rule="evenodd" d="M38.1271 10.8989H13.8497C11.9422 10.8989 10.3815 12.4596 10.3815 14.3671V38.6446C10.3815 40.5521 11.9422 42.1128 13.8497 42.1128H38.1271C40.0346 42.1128 41.5953 40.5521 41.5953 38.6446V14.3671C41.5953 12.4596 40.0346 10.8989 38.1271 10.8989ZM19.789 37.7775H15.1503V22.7342H19.789V37.7775ZM17.4479 20.7833C15.9306 20.7833 14.7167 19.5261 14.7167 18.0088C14.7167 16.4914 15.9306 15.2342 17.4479 15.2342C18.9653 15.2342 20.2225 16.4914 20.2225 18.0088C20.2225 19.5261 19.0086 20.7833 17.4479 20.7833ZM37.2601 37.7775H32.6214V29.8874C32.6214 27.7197 31.7977 26.5059 30.0636 26.5059C28.1994 26.5059 27.2456 27.7631 27.2456 29.8874V37.7775H22.7803V22.7342H27.2456V24.7718C27.2456 24.7718 28.5896 22.3007 31.7977 22.3007C34.9624 22.3007 37.2601 24.2515 37.2601 28.24V37.7775Z" fill="#080877"/>
</svg>
