<svg xmlns="http://www.w3.org/2000/svg" viewBox="0 0 249.52 75.26"><defs><style>.cls-1{fill:#1d1d1b;}.cls-2{fill:#e21779;}.cls-3{fill:#080877;}</style></defs><g id="Camada_2" data-name="Camada 2"><g id="Camada_1-2" data-name="Camada 1"><path class="cls-1" d="M108,40.16,98.49,24.64H91.26V57.93h7.85V47.56c0-3.07-.07-5.73-.22-8,0-.53-.07-1.06-.12-1.58l7.52,11.83h3.14l7.74-12c-.06.68-.11,1.35-.15,2q-.22,3.42-.22,7.7V57.93h7.85V24.64h-6.94Z"/><path class="cls-1" d="M151.12,33.86a15.24,15.24,0,0,0-14,0,13,13,0,0,0-4.85,4.67,12.75,12.75,0,0,0-1.79,6.75,12.71,12.71,0,0,0,6.64,11.42,15.24,15.24,0,0,0,14,0A12.73,12.73,0,0,0,156,52a13,13,0,0,0,1.76-6.76A12.92,12.92,0,0,0,156,38.53,12.75,12.75,0,0,0,151.12,33.86Zm-1.88,14.8A5.89,5.89,0,0,1,147.15,51a5.51,5.51,0,0,1-3,.86A5.61,5.61,0,0,1,141,51a5.89,5.89,0,0,1-2.12-2.33,6.86,6.86,0,0,1-.71-3.38,7,7,0,0,1,.71-3.4A5.91,5.91,0,0,1,141,39.52a5.6,5.6,0,0,1,3.07-.85,5.5,5.5,0,0,1,3,.85,5.91,5.91,0,0,1,2.09,2.36,7,7,0,0,1,.72,3.4A6.87,6.87,0,0,1,149.24,48.66Z"/><polygon class="cls-1" points="172.41 26.3 164.8 26.3 164.8 32.67 160.33 32.67 160.33 39.33 164.8 39.33 164.8 57.93 172.41 57.93 172.41 39.33 177.31 39.33 177.31 32.67 172.41 32.67 172.41 26.3"/><rect class="cls-1" x="182.07" y="32.67" width="7.61" height="25.26"/><path class="cls-1" d="M189.2,20.85a5,5,0,0,0-3.33-1,4.86,4.86,0,0,0-3.33,1.1,3.58,3.58,0,0,0-1.24,2.8,3.62,3.62,0,0,0,1.22,2.93,5,5,0,0,0,3.35,1,4.75,4.75,0,0,0,3.31-1.09,3.66,3.66,0,0,0,1.21-2.86A3.63,3.63,0,0,0,189.2,20.85Z"/><polygon class="cls-1" points="207.82 48.89 202.42 32.67 194 32.67 204.56 57.93 210.56 57.93 221.64 32.67 213.32 32.67 207.82 48.89"/><path class="cls-1" d="M242,32.67v3.07a9.2,9.2,0,0,0-1.57-1.61,8.67,8.67,0,0,0-2.64-1.46,10.2,10.2,0,0,0-3.3-.52,10.44,10.44,0,0,0-5.85,1.69,11.67,11.67,0,0,0-4.05,4.64,15,15,0,0,0-1.47,6.8A15,15,0,0,0,224.54,52a11.89,11.89,0,0,0,4,4.66,10.38,10.38,0,0,0,8.92,1.17,10.31,10.31,0,0,0,2.76-1.43,9.22,9.22,0,0,0,1.62-1.49v3h7.71V32.67Zm-2.61,18.46a5.62,5.62,0,0,1-3.05.81,5.37,5.37,0,0,1-3-.81,5.49,5.49,0,0,1-2-2.31,9.18,9.18,0,0,1,0-7.08,5.61,5.61,0,0,1,2-2.33,5.23,5.23,0,0,1,3-.84,5.31,5.31,0,0,1,5,3.17,9.06,9.06,0,0,1,0,7.08A5.38,5.38,0,0,1,239.34,51.13Z"/><path class="cls-2" d="M72.6,17.33,44,25.16a3.51,3.51,0,0,0-2.59,3.39V73.22h0a1.9,1.9,0,0,0,.07.54A2,2,0,0,0,44,75.19l29.72-8.13a2,2,0,0,0,1.5-2V19.3a1.66,1.66,0,0,0-.07-.55A2,2,0,0,0,72.6,17.33ZM67.36,59.61l-7.94,2.18V54.34a2,2,0,0,0-2.58-2L49.2,54.45v-20l18.16-5Z"/><path class="cls-3" d="M31.23.07,2.59,7.91A3.5,3.5,0,0,0,0,11.3V56H0a2.35,2.35,0,0,0,.07.54,2.06,2.06,0,0,0,2.51,1.43L32.3,49.81a2.06,2.06,0,0,0,1.51-2V2.05a2,2,0,0,0-.08-.55A2,2,0,0,0,31.23.07ZM26,42.36,18,44.53V37.09a2.05,2.05,0,0,0-2.58-2L7.83,37.2v-20l18.15-5Z"/></g></g></svg>