<svg width="40" height="40" viewBox="0 0 40 40" fill="none" xmlns="http://www.w3.org/2000/svg">
<path d="M16.3555 39.5323C15.6609 39.4311 14.9609 39.3409 14.2691 39.2233C11.4963 38.7529 7.99347 37.0166 6.06567 35.1407C6.15865 35.0423 6.24615 34.9411 6.33912 34.8427C10.8638 30.3089 15.3948 25.7724 19.9321 21.2332C20.1103 21.0355 20.3661 20.9256 20.6322 20.9324C25.1896 20.9434 29.7525 20.9434 34.3209 20.9324H34.7721C34.7721 21.6325 34.8076 22.2997 34.7721 22.9833C34.6183 26.3695 33.4566 29.6326 31.436 32.3543C28.4746 36.3439 24.5288 38.7147 19.5849 39.3846L18.5212 39.5268L16.3555 39.5323Z" fill="#F8F8F8"/>
<path d="M39.4971 18.6244H20.9329V0C21.9118 0.041017 22.888 0.0246102 23.8533 0.12852C27.436 0.480869 30.8141 1.96217 33.5005 4.35874C36.8367 7.2397 38.949 11.2843 39.4069 15.6685L39.4971 16.3877V18.6244Z" fill="#F8F8F8"/>
<path d="M5.48593 9.57056L16.8504 20.9377L4.37573 33.4178C-1.52798 27.0438 -1.744 16.3493 5.48593 9.57056Z" fill="#F8F8F8"/>
<path d="M18.5649 19.2014L7.38367 8.0147C10.3451 5.7615 14.4413 4.52278 18.5676 4.76068L18.5649 19.2014Z" fill="#F8F8F8"/>
</svg>
