<svg width="53" height="53" viewBox="0 0 53 53" fill="none" xmlns="http://www.w3.org/2000/svg">
<path d="M23.0895 31.3787L31.5507 26.5055L23.0895 21.6323V31.3787Z" fill="#F8F8F8"/>
<path d="M26.3294 0.494141C11.9659 0.494141 0.317871 12.1421 0.317871 26.5057C0.317871 40.8693 11.9659 52.5173 26.3294 52.5173C40.693 52.5173 52.341 40.8693 52.341 26.5057C52.341 12.1421 40.693 0.494141 26.3294 0.494141ZM42.5827 26.5323C42.5827 26.5323 42.5827 31.8076 41.9135 34.3513C41.5384 35.7437 40.4406 36.8415 39.0483 37.2162C36.5045 37.8858 26.3294 37.8858 26.3294 37.8858C26.3294 37.8858 16.181 37.8858 13.6106 37.1896C12.2182 36.8149 11.1204 35.7167 10.7453 34.3244C10.0757 31.8076 10.0757 26.5057 10.0757 26.5057C10.0757 26.5057 10.0757 21.2309 10.7453 18.6871C11.12 17.2948 12.2448 16.1699 13.6106 15.7953C16.1543 15.1257 26.3294 15.1257 26.3294 15.1257C26.3294 15.1257 36.5045 15.1257 39.0483 15.8219C40.4406 16.1965 41.5384 17.2948 41.9135 18.6871C42.6097 21.2309 42.5827 26.5323 42.5827 26.5323V26.5323Z" fill="#F8F8F8"/>
</svg>
